<svg xmlns="http://www.w3.org/2000/svg" xmlns:xlink="http://www.w3.org/1999/xlink" width="120" height="41" viewBox="0 0 120 41">
  <defs>
    <clipPath id="clip-logo">
      <rect width="120" height="41"/>
    </clipPath>
  </defs>
  <g id="logo" clip-path="url(#clip-logo)">
    <g id="Group_2" data-name="Group 2" transform="translate(0 0.353)">
      <g id="Rectangle_8" data-name="Rectangle 8" transform="translate(13 12.647)" fill="none" stroke="#707070" stroke-width="1">
        <rect width="10" height="10" stroke="none"/>
        <rect x="0.5" y="0.5" width="9" height="9" fill="none"/>
      </g>
      <g id="Rectangle_9" data-name="Rectangle 9" transform="translate(0 12.647)" fill="none" stroke="#707070" stroke-width="1">
        <rect width="10" height="9" stroke="none"/>
        <rect x="0.5" y="0.5" width="9" height="8" fill="none"/>
      </g>
      <g id="Rectangle_10" data-name="Rectangle 10" transform="translate(4 5.647)" fill="none" stroke="#707070" stroke-width="1">
        <rect width="20" height="19" stroke="none"/>
        <rect x="0.5" y="0.5" width="19" height="18" fill="none"/>
      </g>
      <g id="Rectangle_7" data-name="Rectangle 7" transform="translate(13 -0.353)" fill="none" stroke="#707070" stroke-width="1">
        <rect width="10" height="11" stroke="none"/>
        <rect x="0.5" y="0.5" width="9" height="10" fill="none"/>
      </g>
      <rect id="Rectangle_11" data-name="Rectangle 11" width="10" height="11" transform="translate(0 -0.353)" fill="rgba(11,74,172,0.6)"/>
    </g>
    <text id="BusinnesPartner" transform="translate(29 41)" fill="#101f31" font-size="11" font-family="Now-Black, Now" font-weight="800"><tspan x="0" y="0">BusinnesPartner</tspan></text>
    <text id="Azedo_Monteiro" data-name="Azedo&amp;Monteiro" transform="translate(30 10)" fill="#101f31" font-size="12" font-family="Arapey-Regular, Arapey" letter-spacing="0.055em"><tspan x="0" y="0">Azedo&amp;Monteiro</tspan></text>
    <text id="ADVOCACIA" transform="translate(30 25)" fill="#101f31" font-size="10" font-family="Arapey-Regular, Arapey" letter-spacing="0.48em"><tspan x="0" y="0">ADVOCACIA</tspan></text>
    <g id="Group_1" data-name="Group 1" transform="translate(29.804 28.235)">
      <rect id="Rectangle_1" data-name="Rectangle 1" width="89" height="3" transform="translate(0.196 -0.235)" fill="#0b4aac"/>
      <path id="Polygon_1" data-name="Polygon 1" d="M4,0,8,6H0Z" transform="translate(49.196 5.765) rotate(180)" fill="#0b4aac"/>
    </g>
  </g>
</svg>
